<?xml version="1.0" encoding="utf-8"?>
<!-- Generator: Adobe Illustrator 24.1.2, SVG Export Plug-In . SVG Version: 6.00 Build 0)  -->
<svg version="1.1" id="Layer_1" xmlns="http://www.w3.org/2000/svg" xmlns:xlink="http://www.w3.org/1999/xlink" x="0px" y="0px"
	 viewBox="0 45 841.89 890.55" style="enable-background:new 0 45 841.89 890.55;" xml:space="preserve">
<style type="text/css">
	.st0{fill:none;stroke:#030303;stroke-width:20.0079;stroke-miterlimit:10;}
	.st1{fill:none;stroke:#030303;stroke-width:20.0079;stroke-linecap:round;stroke-linejoin:round;stroke-miterlimit:10;}
</style>
<g>
	<g>
		<g>
			<ellipse class="st0" cx="247.56" cy="393.62" rx="88" ry="80.75"/>
			<path class="st0" d="M343.09,608.07"/>
			<path class="st0" d="M319.39,691.78H60.9v-80.25c0-53.03,44.56-96.03,99.53-96.03h174.3c54.97,0,99.53,42.98,99.53,96.03"/>
			<ellipse class="st0" cx="546.64" cy="474.36" rx="113.47" ry="104.12"/>
			<path class="st0" d="M404.44,614.89c9.57-2.18,19.53-3.36,29.81-3.36h224.77c70.87,0,128.31,55.44,128.31,123.82v103.47H305.92
				V735.35C305.92,676.88,347.95,627.86,404.44,614.89"/>
			<path class="st0" d="M411.16,301.75c3.07-3.85,2.26-9.19-1.74-12.25c-20.86-15.99-33.62-37.51-33.62-61.2
				c0-49.38,55.58-89.41,124.14-89.41s124.14,40.04,124.14,89.41c0,48.93-54.57,88.69-122.3,89.41c-1.23,0.02-2.43,0.23-3.56,0.65
				l-111.6,42.4c-9.13,3.47-17.47-6.26-11.63-13.58L411.16,301.75z"/>
			<line class="st1" x1="437.15" y1="248.09" x2="557.27" y2="248.09"/>
			<line class="st1" x1="437.15" y1="210.64" x2="557.27" y2="210.64"/>
		</g>
	</g>
</g>
</svg>
